<svg xmlns="http://www.w3.org/2000/svg" xmlns:xlink="http://www.w3.org/1999/xlink" width="100" zoomAndPan="magnify" viewBox="0 0 75 74.999997" height="100" preserveAspectRatio="xMidYMid meet" version="1.0"><defs><clipPath id="8f08b7bf08"><path d="M 51 9.019531 L 55 9.019531 L 55 19 L 51 19 Z M 51 9.019531 " clip-rule="nonzero"/></clipPath><clipPath id="7a04ffcc38"><path d="M 61 25 L 69.96875 25 L 69.96875 29 L 61 29 Z M 61 25 " clip-rule="nonzero"/></clipPath></defs><g clip-path="url(#8f08b7bf08)"><path fill="#000000" d="M 53.667969 9.5 C 53.960938 9.796875 54.105469 10.152344 54.105469 10.570312 L 54.105469 17.117188 C 54.105469 17.535156 53.960938 17.890625 53.667969 18.1875 C 53.375 18.484375 53.019531 18.628906 52.601562 18.628906 C 52.1875 18.628906 51.832031 18.484375 51.539062 18.1875 C 51.246094 17.890625 51.101562 17.535156 51.101562 17.117188 L 51.101562 10.570312 C 51.101562 10.152344 51.246094 9.796875 51.539062 9.5 C 51.832031 9.207031 52.1875 9.058594 52.601562 9.058594 C 53.019531 9.058594 53.375 9.207031 53.667969 9.5 Z M 53.667969 9.5 " fill-opacity="1" fill-rule="nonzero"/></g><path fill="#000000" d="M 61.03125 33.234375 C 61.445312 33.210938 61.808594 33.335938 62.121094 33.613281 L 66.628906 37.640625 C 66.9375 37.921875 67.105469 38.269531 67.128906 38.6875 C 67.152344 39.101562 67.027344 39.46875 66.753906 39.78125 C 66.476562 40.09375 66.128906 40.261719 65.714844 40.285156 C 65.300781 40.308594 64.9375 40.183594 64.625 39.90625 L 60.117188 35.878906 C 59.808594 35.597656 59.640625 35.25 59.617188 34.832031 C 59.589844 34.417969 59.714844 34.050781 59.992188 33.738281 C 60.269531 33.425781 60.617188 33.257812 61.03125 33.234375 Z M 61.03125 33.234375 " fill-opacity="1" fill-rule="nonzero"/><g clip-path="url(#7a04ffcc38)"><path fill="#000000" d="M 62.058594 27.757812 C 61.765625 27.460938 61.621094 27.105469 61.621094 26.6875 C 61.621094 26.269531 61.765625 25.914062 62.058594 25.617188 C 62.351562 25.324219 62.707031 25.175781 63.121094 25.175781 L 68.632812 25.175781 C 69.046875 25.175781 69.402344 25.324219 69.695312 25.617188 C 69.988281 25.914062 70.136719 26.269531 70.136719 26.6875 C 70.136719 27.105469 69.988281 27.460938 69.695312 27.757812 C 69.402344 28.050781 69.046875 28.199219 68.632812 28.199219 L 63.121094 28.199219 C 62.707031 28.199219 62.351562 28.050781 62.058594 27.757812 Z M 62.058594 27.757812 " fill-opacity="1" fill-rule="nonzero"/></g><path fill="#000000" d="M 63.371094 12.246094 C 63.601562 11.898438 63.921875 11.6875 64.324219 11.601562 C 64.730469 11.523438 65.105469 11.597656 65.449219 11.828125 C 65.800781 12.058594 66.015625 12.378906 66.101562 12.785156 C 66.183594 13.199219 66.109375 13.578125 65.875 13.933594 L 61.871094 19.976562 C 61.640625 20.320312 61.324219 20.535156 60.917969 20.617188 C 60.511719 20.699219 60.136719 20.625 59.792969 20.390625 C 59.441406 20.160156 59.226562 19.839844 59.140625 19.433594 C 59.058594 19.023438 59.136719 18.640625 59.367188 18.289062 Z M 63.371094 12.246094 " fill-opacity="1" fill-rule="nonzero"/><path fill="#000000" d="M 8.023438 44.363281 C 9.316406 42.960938 10.367188 42.046875 11.179688 41.621094 C 11.453125 41.46875 11.710938 41.355469 11.957031 41.28125 C 11.996094 40.832031 12.050781 40.378906 12.117188 39.917969 C 12.226562 39.128906 12.472656 38.140625 12.859375 36.949219 C 13.753906 34.15625 14.808594 31.804688 16.027344 29.898438 L 16.039062 29.882812 C 16.730469 28.820312 17.476562 27.882812 18.28125 27.078125 C 18.527344 26.828125 18.773438 26.589844 19.019531 26.359375 L 19.019531 26.371094 C 21.21875 24.289062 23.335938 22.886719 25.378906 22.164062 C 28.671875 21.007812 31.453125 21.585938 33.730469 23.902344 C 33.914062 24.070312 34.082031 24.28125 34.246094 24.535156 C 34.363281 24.53125 34.480469 24.53125 34.597656 24.535156 C 36.230469 24.546875 37.542969 25.085938 38.539062 26.144531 C 38.953125 26.53125 39.332031 27.164062 39.679688 28.046875 L 39.65625 28.007812 C 39.832031 28.351562 39.929688 28.703125 39.945312 29.054688 C 41.054688 29.3125 41.945312 29.800781 42.625 30.527344 C 42.832031 30.734375 43.023438 30.96875 43.199219 31.230469 C 43.808594 30.722656 44.378906 30.191406 44.902344 29.632812 C 44.910156 29.621094 44.917969 29.609375 44.925781 29.59375 C 45.765625 28.753906 46.515625 27.863281 47.179688 26.914062 C 50.160156 22.566406 53.015625 21.203125 55.746094 22.820312 C 58.539062 24.214844 59.480469 26.558594 58.5625 29.859375 C 57.824219 32.617188 56.179688 35.183594 53.628906 37.5625 L 53.628906 37.550781 C 51.261719 39.796875 48.542969 41.808594 45.464844 43.582031 L 45.453125 43.582031 C 43.503906 44.699219 41.878906 45.777344 40.582031 46.804688 C 44.183594 46.109375 47.445312 46.234375 50.375 47.183594 C 53.832031 48.277344 55.34375 50.550781 54.90625 54.007812 C 54.894531 54.136719 54.878906 54.265625 54.855469 54.398438 L 54.871094 54.386719 C 54.558594 56.402344 53.613281 57.734375 52.027344 58.390625 C 50.71875 59.019531 48.886719 59.058594 46.53125 58.503906 L 46.515625 58.503906 C 43.019531 57.671875 39.578125 58.164062 36.199219 59.976562 L 36.210938 59.976562 C 32.863281 61.78125 29.523438 62.492188 26.191406 62.117188 C 24.882812 63.910156 23.089844 65.007812 20.808594 65.414062 C 20.792969 65.417969 20.773438 65.421875 20.757812 65.425781 C 17.832031 66.035156 14.269531 63.457031 10.066406 57.695312 L 10.066406 57.683594 C 5.78125 51.746094 5.097656 47.308594 8.011719 44.375 Z M 12.496094 55.921875 L 12.496094 55.910156 C 15.742188 60.363281 18.355469 62.535156 20.332031 62.433594 L 20.285156 62.445312 C 21.414062 62.242188 22.363281 61.777344 23.125 61.046875 C 20.863281 59.824219 19.0625 58.167969 17.730469 56.085938 C 17.507812 55.734375 17.441406 55.359375 17.527344 54.953125 C 17.613281 54.542969 17.832031 54.226562 18.179688 53.996094 C 18.527344 53.773438 18.90625 53.703125 19.308594 53.792969 C 19.714844 53.882812 20.03125 54.101562 20.257812 54.449219 C 21.574219 56.484375 23.453125 58.007812 25.878906 59.019531 C 28.839844 59.488281 31.808594 58.917969 34.785156 57.308594 L 34.796875 57.308594 C 38.859375 55.128906 42.996094 54.542969 47.207031 55.558594 C 48.757812 55.925781 49.960938 55.945312 50.824219 55.621094 C 51.394531 55.328125 51.742188 54.789062 51.875 54.011719 C 51.882812 53.984375 51.886719 53.960938 51.890625 53.933594 L 51.902344 53.921875 C 52.207031 51.957031 51.398438 50.667969 49.472656 50.054688 C 46.953125 49.265625 44.144531 49.183594 41.042969 49.804688 C 38.898438 50.222656 37.53125 50.246094 36.9375 49.878906 C 35.882812 49.410156 35.53125 48.628906 35.886719 47.535156 C 35.976562 47.125 36.332031 46.617188 36.953125 46.011719 L 36.964844 46 C 38.550781 44.414062 40.890625 42.738281 43.976562 40.964844 L 43.964844 40.964844 C 46.832031 39.316406 49.367188 37.445312 51.578125 35.359375 L 51.578125 35.347656 C 53.667969 33.398438 55.027344 31.296875 55.660156 29.054688 C 56.113281 27.414062 55.683594 26.234375 54.371094 25.515625 C 53 25.003906 51.433594 26.039062 49.660156 28.625 L 49.648438 28.636719 C 48.882812 29.734375 48.019531 30.765625 47.054688 31.734375 L 47.082031 31.699219 C 45.90625 32.957031 44.53125 34.105469 42.960938 35.144531 C 42.9375 35.164062 42.914062 35.175781 42.886719 35.183594 C 41.648438 36.03125 40.089844 37.011719 38.214844 38.128906 C 37.855469 38.34375 37.476562 38.398438 37.074219 38.292969 C 36.675781 38.191406 36.371094 37.960938 36.160156 37.601562 C 35.949219 37.242188 35.894531 36.859375 35.996094 36.453125 C 36.101562 36.054688 36.332031 35.75 36.6875 35.535156 C 38.28125 34.589844 39.632812 33.742188 40.757812 33.003906 C 40.675781 32.875 40.589844 32.761719 40.492188 32.664062 C 39.90625 32.140625 39.0625 31.878906 37.953125 31.871094 C 37.152344 31.976562 36.035156 32.441406 34.59375 33.269531 C 33.929688 33.648438 33.195312 34.105469 32.390625 34.640625 C 32.042969 34.875 31.667969 34.949219 31.265625 34.867188 C 30.859375 34.785156 30.542969 34.566406 30.3125 34.214844 C 30.082031 33.867188 30.007812 33.488281 30.085938 33.082031 C 30.171875 32.675781 30.390625 32.355469 30.738281 32.125 C 32.203125 31.144531 33.488281 30.386719 34.59375 29.84375 C 35.4375 29.433594 36.175781 29.148438 36.8125 28.988281 C 36.679688 28.679688 36.542969 28.441406 36.410156 28.285156 C 35.933594 27.855469 35.328125 27.621094 34.59375 27.578125 C 34.226562 27.554688 33.824219 27.578125 33.394531 27.652344 L 33.378906 27.652344 C 33.367188 27.660156 33.355469 27.664062 33.339844 27.667969 L 33.328125 27.667969 C 33.316406 27.671875 33.304688 27.675781 33.289062 27.679688 C 32.148438 27.960938 30.398438 28.976562 28.042969 30.726562 C 27.707031 30.972656 27.335938 31.066406 26.929688 31.003906 C 26.523438 30.9375 26.199219 30.738281 25.953125 30.398438 C 25.703125 30.0625 25.605469 29.691406 25.664062 29.28125 C 25.730469 28.867188 25.929688 28.535156 26.265625 28.285156 C 28.066406 26.953125 29.582031 25.992188 30.8125 25.402344 C 29.546875 24.546875 28.070312 24.417969 26.378906 25.011719 C 24.679688 25.632812 22.910156 26.816406 21.070312 28.5625 L 21.070312 28.574219 C 20.847656 28.78125 20.625 28.996094 20.40625 29.21875 C 19.738281 29.886719 19.117188 30.664062 18.539062 31.546875 L 18.554688 31.53125 C 17.464844 33.253906 16.515625 35.367188 15.710938 37.878906 C 15.394531 38.867188 15.191406 39.691406 15.097656 40.347656 L 15.097656 40.359375 C 14.957031 41.28125 14.878906 42.167969 14.859375 43.03125 C 14.859375 43.046875 14.859375 43.0625 14.859375 43.078125 C 14.859375 44.546875 15.019531 45.929688 15.347656 47.234375 C 15.351562 47.25 15.355469 47.269531 15.359375 47.285156 C 15.445312 47.574219 15.519531 47.855469 15.585938 48.128906 C 15.6875 48.527344 15.632812 48.90625 15.421875 49.261719 C 15.207031 49.621094 14.898438 49.851562 14.496094 49.957031 C 14.097656 50.058594 13.722656 50.003906 13.371094 49.792969 C 13.011719 49.574219 12.78125 49.265625 12.679688 48.859375 C 12.617188 48.613281 12.546875 48.355469 12.46875 48.089844 C 12.464844 48.074219 12.460938 48.058594 12.453125 48.042969 C 12.1875 47 12.007812 45.910156 11.914062 44.78125 C 11.441406 45.171875 10.882812 45.71875 10.238281 46.417969 L 10.226562 46.429688 C 8.644531 48.457031 9.398438 51.625 12.496094 55.921875 Z M 12.496094 55.921875 " fill-opacity="1" fill-rule="nonzero"/><path fill="#000000" d="M 44.589844 21.777344 L 40.082031 17.746094 C 39.773438 17.46875 39.605469 17.117188 39.582031 16.703125 C 39.554688 16.285156 39.679688 15.917969 39.957031 15.605469 C 40.234375 15.292969 40.582031 15.125 40.996094 15.101562 C 41.410156 15.078125 41.773438 15.203125 42.085938 15.480469 L 46.59375 19.507812 C 46.902344 19.789062 47.070312 20.136719 47.09375 20.554688 C 47.117188 20.972656 46.992188 21.335938 46.71875 21.648438 C 46.441406 21.960938 46.09375 22.128906 45.679688 22.152344 C 45.265625 22.179688 44.902344 22.054688 44.589844 21.777344 Z M 44.589844 21.777344 " fill-opacity="1" fill-rule="nonzero"/></svg>