<svg xmlns="http://www.w3.org/2000/svg" xmlns:xlink="http://www.w3.org/1999/xlink" width="100" zoomAndPan="magnify" viewBox="0 0 75 37.5" height="50" preserveAspectRatio="xMidYMid meet" version="1.0"><defs><g/><clipPath id="94192f233e"><path d="M 57.058594 14.632812 L 72.617188 14.632812 L 72.617188 31.726562 L 57.058594 31.726562 Z M 57.058594 14.632812 " clip-rule="nonzero"/></clipPath><clipPath id="c45f6af953"><path d="M 2.304688 5.261719 L 72 5.261719 L 72 28 L 2.304688 28 Z M 2.304688 5.261719 " clip-rule="nonzero"/></clipPath></defs><g clip-path="url(#94192f233e)"><path fill="#1d1d1b" d="M 62.144531 29.011719 L 62.121094 28.992188 C 61.214844 28.226562 59.453125 26.363281 59.378906 26.28125 L 58.054688 24.78125 L 58.042969 24.769531 C 57.925781 24.597656 57.902344 24.382812 57.972656 24.183594 C 58.015625 24.058594 58.109375 23.945312 58.226562 23.863281 L 58.238281 23.859375 C 58.285156 23.824219 58.339844 23.800781 58.394531 23.78125 C 58.460938 23.757812 58.527344 23.746094 58.597656 23.746094 C 58.75 23.746094 58.898438 23.800781 59.015625 23.898438 L 60.082031 24.792969 L 60.078125 24.78125 L 60.742188 25.335938 C 60.851562 25.429688 60.984375 25.476562 61.117188 25.476562 C 61.234375 25.476562 61.351562 25.441406 61.453125 25.371094 C 61.675781 25.214844 61.765625 24.953125 61.679688 24.695312 L 58.953125 16.621094 C 58.878906 16.402344 58.894531 16.171875 59 15.964844 C 59.101562 15.761719 59.277344 15.605469 59.492188 15.535156 L 59.519531 15.527344 C 59.605469 15.496094 59.695312 15.484375 59.789062 15.484375 C 60.160156 15.484375 60.488281 15.71875 60.605469 16.070312 L 61.371094 18.34375 L 62.808594 22.648438 C 62.863281 22.808594 63.011719 22.914062 63.179688 22.914062 C 63.222656 22.914062 63.261719 22.910156 63.300781 22.894531 L 63.308594 22.894531 C 63.410156 22.859375 63.488281 22.789062 63.535156 22.695312 C 63.582031 22.605469 63.589844 22.5 63.554688 22.398438 L 63.035156 20.839844 L 63.039062 20.835938 C 62.972656 20.625 62.992188 20.398438 63.089844 20.199219 C 63.191406 19.996094 63.367188 19.84375 63.585938 19.769531 L 63.609375 19.761719 C 63.699219 19.730469 63.789062 19.71875 63.882812 19.71875 C 64.25 19.71875 64.578125 19.953125 64.695312 20.304688 L 64.90625 20.925781 L 65.402344 22.40625 C 65.4375 22.503906 65.503906 22.582031 65.597656 22.628906 C 65.652344 22.65625 65.710938 22.671875 65.773438 22.671875 C 65.8125 22.671875 65.855469 22.664062 65.894531 22.652344 L 65.902344 22.648438 C 66.003906 22.617188 66.082031 22.546875 66.128906 22.453125 C 66.175781 22.359375 66.183594 22.253906 66.148438 22.15625 L 65.628906 20.601562 L 65.628906 20.589844 L 65.625 20.585938 C 65.546875 20.164062 65.792969 19.746094 66.195312 19.613281 L 66.21875 19.601562 C 66.308594 19.574219 66.398438 19.558594 66.492188 19.558594 C 66.847656 19.558594 67.160156 19.773438 67.289062 20.105469 L 67.292969 20.105469 L 68.003906 22.234375 C 68.054688 22.394531 68.203125 22.503906 68.371094 22.503906 C 68.414062 22.503906 68.457031 22.496094 68.496094 22.480469 L 68.503906 22.480469 C 68.601562 22.445312 68.683594 22.378906 68.726562 22.285156 C 68.773438 22.191406 68.78125 22.085938 68.75 21.988281 L 68.265625 20.539062 L 68.265625 20.535156 C 68.136719 20.089844 68.378906 19.628906 68.816406 19.484375 L 68.839844 19.476562 C 68.929688 19.445312 69.019531 19.429688 69.113281 19.429688 C 69.246094 19.429688 69.375 19.460938 69.496094 19.519531 C 69.699219 19.625 69.851562 19.800781 69.925781 20.015625 L 71.714844 25.375 C 71.996094 26.207031 71.964844 27.035156 71.625 27.832031 L 71.609375 27.863281 L 71.609375 27.871094 C 71.585938 27.925781 71.519531 28.082031 71.394531 28.289062 C 71.203125 28.621094 70.960938 28.9375 70.675781 29.238281 C 70.601562 29.316406 70.503906 29.398438 70.386719 29.484375 L 70.359375 29.507812 C 69.847656 29.945312 69.25 30.289062 68.578125 30.53125 C 67.832031 30.804688 67.09375 30.941406 66.386719 30.941406 C 65.789062 30.941406 65.328125 30.839844 65.046875 30.757812 L 65.042969 30.753906 L 64.667969 30.609375 C 63.457031 30.148438 62.78125 29.636719 62.144531 29.011719 Z M 66.382812 31.726562 C 67.117188 31.726562 67.875 31.59375 68.640625 31.339844 C 68.707031 31.316406 68.773438 31.292969 68.84375 31.269531 C 69.597656 30.996094 70.277344 30.605469 70.855469 30.113281 L 70.863281 30.109375 C 71.011719 30 71.140625 29.886719 71.242188 29.78125 C 71.570312 29.433594 71.847656 29.066406 72.070312 28.6875 C 72.207031 28.453125 72.304688 28.25 72.347656 28.136719 L 72.347656 28.132812 C 72.761719 27.152344 72.800781 26.144531 72.460938 25.125 L 70.667969 19.769531 C 70.53125 19.351562 70.238281 19.015625 69.84375 18.820312 C 69.613281 18.703125 69.367188 18.644531 69.113281 18.644531 C 68.9375 18.644531 68.761719 18.675781 68.59375 18.730469 L 68.566406 18.738281 C 68.28125 18.835938 68.03125 19.003906 67.839844 19.234375 L 67.742188 19.34375 L 67.640625 19.242188 C 67.328125 18.941406 66.921875 18.773438 66.492188 18.773438 C 66.316406 18.773438 66.140625 18.804688 65.972656 18.859375 L 65.949219 18.867188 C 65.660156 18.964844 65.402344 19.136719 65.210938 19.371094 L 65.117188 19.484375 L 65.011719 19.382812 C 64.703125 19.09375 64.304688 18.933594 63.882812 18.933594 C 63.703125 18.933594 63.53125 18.960938 63.363281 19.015625 L 63.339844 19.027344 C 63.117188 19.097656 62.917969 19.21875 62.746094 19.375 L 62.59375 19.515625 L 62.125 18.113281 L 62.121094 18.113281 L 61.347656 15.820312 C 61.210938 15.40625 60.917969 15.066406 60.523438 14.871094 C 60.292969 14.757812 60.046875 14.699219 59.789062 14.699219 C 59.613281 14.699219 59.4375 14.726562 59.269531 14.78125 L 59.246094 14.789062 C 58.832031 14.929688 58.492188 15.222656 58.296875 15.617188 C 58.101562 16.007812 58.070312 16.453125 58.210938 16.871094 L 60.710938 24.285156 L 59.171875 23.226562 C 58.960938 23.082031 58.71875 23.003906 58.464844 23.003906 C 58.246094 23.003906 58.027344 23.066406 57.84375 23.179688 C 57.828125 23.1875 57.8125 23.199219 57.800781 23.207031 L 57.792969 23.210938 C 57.53125 23.386719 57.335938 23.632812 57.238281 23.910156 C 57.074219 24.375 57.140625 24.863281 57.421875 25.25 L 58.796875 26.804688 L 58.804688 26.816406 C 58.890625 26.90625 60.648438 28.773438 61.601562 29.578125 L 61.609375 29.585938 C 62.433594 30.390625 63.230469 30.894531 64.351562 31.328125 L 64.363281 31.332031 C 64.496094 31.398438 65.21875 31.726562 66.382812 31.726562 " fill-opacity="1" fill-rule="nonzero"/></g><path fill="#1d1d1b" d="M 58.390625 13.363281 C 58.210938 13.363281 58.046875 13.25 57.984375 13.082031 L 57.386719 11.496094 C 57.347656 11.390625 57.351562 11.273438 57.398438 11.167969 C 57.445312 11.0625 57.53125 10.980469 57.636719 10.941406 L 57.644531 10.9375 C 57.695312 10.917969 57.746094 10.910156 57.796875 10.910156 C 57.976562 10.910156 58.140625 11.023438 58.203125 11.1875 L 58.800781 12.773438 C 58.886719 12.996094 58.773438 13.246094 58.550781 13.332031 L 58.542969 13.332031 C 58.492188 13.351562 58.441406 13.363281 58.390625 13.363281 " fill-opacity="1" fill-rule="nonzero"/><path fill="#1d1d1b" d="M 63.308594 16.230469 C 63.128906 16.230469 62.964844 16.121094 62.902344 15.953125 L 62.898438 15.945312 C 62.816406 15.722656 62.925781 15.472656 63.148438 15.386719 L 64.738281 14.789062 C 64.789062 14.769531 64.839844 14.757812 64.890625 14.757812 C 65.070312 14.757812 65.230469 14.871094 65.296875 15.039062 L 65.296875 15.046875 C 65.339844 15.15625 65.335938 15.273438 65.289062 15.378906 C 65.242188 15.484375 65.15625 15.5625 65.046875 15.605469 L 63.457031 16.203125 C 63.410156 16.222656 63.359375 16.230469 63.308594 16.230469 " fill-opacity="1" fill-rule="nonzero"/><path fill="#1d1d1b" d="M 61.4375 13.671875 C 61.375 13.671875 61.308594 13.660156 61.246094 13.628906 C 61.179688 13.601562 61.125 13.558594 61.085938 13.503906 C 60.984375 13.371094 60.964844 13.207031 61.03125 13.058594 L 61.808594 11.34375 C 61.859375 11.222656 61.96875 11.132812 62.097656 11.101562 C 62.128906 11.09375 62.164062 11.089844 62.195312 11.089844 C 62.261719 11.089844 62.328125 11.105469 62.390625 11.132812 C 62.457031 11.164062 62.511719 11.203125 62.550781 11.257812 C 62.648438 11.390625 62.667969 11.554688 62.601562 11.703125 L 61.828125 13.417969 C 61.773438 13.539062 61.667969 13.628906 61.539062 13.660156 C 61.507812 13.667969 61.472656 13.671875 61.4375 13.671875 " fill-opacity="1" fill-rule="nonzero"/><path fill="#1d1d1b" d="M 54.996094 19.371094 C 54.816406 19.371094 54.65625 19.257812 54.59375 19.09375 L 54.589844 19.082031 C 54.503906 18.859375 54.617188 18.609375 54.839844 18.527344 L 56.453125 17.917969 C 56.5 17.898438 56.550781 17.890625 56.605469 17.890625 C 56.78125 17.890625 56.945312 18 57.007812 18.167969 L 57.011719 18.179688 C 57.054688 18.285156 57.050781 18.402344 57 18.507812 C 56.953125 18.613281 56.867188 18.695312 56.761719 18.734375 L 55.148438 19.34375 C 55.101562 19.363281 55.046875 19.371094 54.996094 19.371094 " fill-opacity="1" fill-rule="nonzero"/><path fill="#1d1d1b" d="M 56.320312 15.605469 C 56.257812 15.605469 56.199219 15.59375 56.144531 15.566406 L 54.425781 14.789062 C 54.320312 14.742188 54.238281 14.65625 54.199219 14.550781 C 54.160156 14.441406 54.160156 14.324219 54.210938 14.21875 L 54.210938 14.214844 C 54.246094 14.136719 54.296875 14.074219 54.359375 14.03125 C 54.4375 13.984375 54.519531 13.957031 54.605469 13.957031 C 54.667969 13.957031 54.726562 13.96875 54.785156 13.996094 L 56.503906 14.769531 C 56.605469 14.816406 56.6875 14.902344 56.726562 15.011719 C 56.769531 15.121094 56.765625 15.238281 56.71875 15.34375 L 56.714844 15.34375 C 56.679688 15.425781 56.628906 15.488281 56.566406 15.53125 C 56.492188 15.578125 56.40625 15.605469 56.320312 15.605469 " fill-opacity="1" fill-rule="nonzero"/><g clip-path="url(#c45f6af953)"><path fill="#1d1d1b" d="M 13.21875 25.96875 C 7.828125 25.96875 3.441406 21.585938 3.441406 16.195312 C 3.441406 10.804688 7.828125 6.417969 13.21875 6.417969 L 60.125 6.417969 C 65.515625 6.417969 69.902344 10.804688 69.902344 16.195312 C 69.902344 16.671875 69.867188 17.140625 69.800781 17.597656 C 69.988281 17.644531 70.171875 17.714844 70.351562 17.804688 C 70.535156 17.894531 70.707031 18.007812 70.863281 18.132812 C 70.976562 17.503906 71.035156 16.855469 71.035156 16.195312 C 71.035156 10.175781 66.140625 5.28125 60.125 5.28125 L 13.21875 5.28125 C 7.199219 5.28125 2.304688 10.175781 2.304688 16.195312 C 2.304688 22.210938 7.199219 27.105469 13.21875 27.105469 L 57.546875 27.105469 L 56.542969 25.96875 L 13.21875 25.96875 " fill-opacity="1" fill-rule="nonzero"/></g><g fill="#1d1d1b" fill-opacity="1"><g transform="translate(7.06858, 19.653923)"><g><path d="M 0.15625 0 L 0.15625 -0.671875 L 1.296875 -0.671875 L 1.296875 -6.328125 L 0.15625 -6.328125 L 0.15625 -7 L 6.46875 -7 L 6.46875 -4.296875 L 5.625 -4.296875 L 5.625 -6.328125 L 2.390625 -6.328125 L 2.390625 -3.8125 L 4.125 -3.8125 L 4.125 -4.953125 L 4.734375 -4.953125 L 4.734375 -2.078125 L 4.125 -2.078125 L 4.125 -3.28125 L 2.390625 -3.28125 L 2.390625 -0.671875 L 5.625 -0.671875 L 5.625 -2.65625 L 6.46875 -2.65625 L 6.46875 0 Z M 0.15625 0 "/></g></g><g transform="translate(13.965554, 19.653923)"><g><path d="M 0.15625 -0.671875 L 1.28125 -0.671875 L 1.28125 -6.328125 L 0.15625 -6.328125 L 0.15625 -7 L 2.25 -7 C 2.78125 -7 3.253906 -6.960938 3.671875 -6.890625 C 4.097656 -6.828125 4.507812 -6.71875 4.90625 -6.5625 C 5.320312 -6.394531 5.671875 -6.179688 5.953125 -5.921875 C 6.242188 -5.660156 6.472656 -5.332031 6.640625 -4.9375 C 6.816406 -4.53125 6.90625 -4.066406 6.90625 -3.546875 C 6.90625 -3.054688 6.832031 -2.609375 6.6875 -2.203125 C 6.550781 -1.804688 6.351562 -1.472656 6.09375 -1.203125 C 5.832031 -0.929688 5.515625 -0.703125 5.140625 -0.515625 C 4.765625 -0.335938 4.351562 -0.207031 3.90625 -0.125 C 3.457031 -0.0390625 2.960938 0 2.421875 0 L 0.15625 0 Z M 2.375 -0.671875 C 2.78125 -0.671875 3.140625 -0.695312 3.453125 -0.75 C 3.765625 -0.8125 4.0625 -0.90625 4.34375 -1.03125 C 4.644531 -1.164062 4.890625 -1.34375 5.078125 -1.5625 C 5.273438 -1.78125 5.425781 -2.050781 5.53125 -2.375 C 5.644531 -2.707031 5.703125 -3.097656 5.703125 -3.546875 C 5.703125 -3.867188 5.671875 -4.160156 5.609375 -4.421875 C 5.554688 -4.691406 5.472656 -4.925781 5.359375 -5.125 C 5.242188 -5.3125 5.101562 -5.472656 4.9375 -5.609375 C 4.78125 -5.753906 4.609375 -5.875 4.421875 -5.96875 C 4.242188 -6.050781 4.039062 -6.117188 3.8125 -6.171875 C 3.582031 -6.234375 3.347656 -6.273438 3.109375 -6.296875 C 2.890625 -6.304688 2.644531 -6.3125 2.375 -6.3125 Z M 2.375 -0.671875 "/></g></g><g transform="translate(21.252923, 19.653923)"><g><path d="M 0.140625 0 L 0.140625 -0.671875 L 1.265625 -0.671875 L 1.265625 -6.328125 L 0.140625 -6.328125 L 0.140625 -7 L 3.4375 -7 L 3.4375 -6.328125 L 2.359375 -6.328125 L 2.359375 -0.671875 L 3.4375 -0.671875 L 3.4375 0 Z M 0.140625 0 "/></g></g><g transform="translate(24.826894, 19.653923)"><g><path d="M 1.71875 0 L 1.71875 -0.671875 L 2.8125 -0.671875 L 2.8125 -6.328125 L 1.03125 -6.328125 L 1.03125 -4.171875 L 0.15625 -4.171875 L 0.15625 -7 L 6.515625 -7 L 6.515625 -4.171875 L 5.640625 -4.171875 L 5.640625 -6.328125 L 3.90625 -6.328125 L 3.90625 -0.671875 L 5.015625 -0.671875 L 5.015625 0 Z M 1.71875 0 "/></g></g><g transform="translate(31.496137, 19.653923)"><g><path d="M 0.703125 -2.546875 L 0.703125 -3.171875 L 3.421875 -3.171875 L 3.421875 -2.546875 Z M 0.703125 -2.546875 "/></g></g><g transform="translate(35.627815, 19.653923)"><g><path d="M 0.234375 -0.671875 L 1.25 -0.671875 L 1.25 -6.328125 L 0.15625 -6.328125 L 0.15625 -7 L 2.96875 -7 L 4.625 -2.59375 L 6.171875 -7 L 8.78125 -7 L 8.78125 -6.328125 L 7.703125 -6.328125 L 7.703125 -0.671875 L 8.84375 -0.671875 L 8.84375 0 L 5.625 0 L 5.625 -0.671875 L 6.65625 -0.671875 L 6.65625 -6.171875 L 4.84375 -1.203125 C 4.757812 -0.960938 4.644531 -0.84375 4.5 -0.84375 C 4.425781 -0.84375 4.359375 -0.875 4.296875 -0.9375 C 4.234375 -1 4.179688 -1.078125 4.140625 -1.171875 L 2.109375 -6.3125 L 2.109375 -0.671875 L 3.28125 -0.671875 L 3.28125 0 L 0.234375 0 Z M 0.234375 -0.671875 "/></g></g><g transform="translate(44.630132, 19.653923)"><g><path d="M 0.15625 0 L 0.15625 -0.671875 L 1.296875 -0.671875 L 1.296875 -6.328125 L 0.15625 -6.328125 L 0.15625 -7 L 6.46875 -7 L 6.46875 -4.296875 L 5.625 -4.296875 L 5.625 -6.328125 L 2.390625 -6.328125 L 2.390625 -3.8125 L 4.125 -3.8125 L 4.125 -4.953125 L 4.734375 -4.953125 L 4.734375 -2.078125 L 4.125 -2.078125 L 4.125 -3.28125 L 2.390625 -3.28125 L 2.390625 -0.671875 L 5.625 -0.671875 L 5.625 -2.65625 L 6.46875 -2.65625 L 6.46875 0 Z M 0.15625 0 "/></g></g></g></svg>